<svg width="184" height="30" viewBox="0 0 184 30" fill="none" xmlns="http://www.w3.org/2000/svg">
<path d="M27.7455 3.8366V28.9646H22.7055V12.6206L15.9735 28.9646H12.1575L5.38948 12.6206V28.9646H0.349479V3.8366H6.07348L14.0655 22.5206L22.0575 3.8366H27.7455ZM41.5844 29.2886C39.6644 29.2886 37.9364 28.8686 36.4004 28.0286C34.8644 27.1646 33.6524 25.9526 32.7644 24.3926C31.9004 22.8326 31.4684 21.0326 31.4684 18.9926C31.4684 16.9526 31.9124 15.1526 32.8004 13.5926C33.7124 12.0326 34.9484 10.8326 36.5084 9.9926C38.0684 9.1286 39.8084 8.6966 41.7284 8.6966C43.6484 8.6966 45.3884 9.1286 46.9484 9.9926C48.5084 10.8326 49.7324 12.0326 50.6204 13.5926C51.5324 15.1526 51.9884 16.9526 51.9884 18.9926C51.9884 21.0326 51.5204 22.8326 50.5844 24.3926C49.6724 25.9526 48.4244 27.1646 46.8404 28.0286C45.2804 28.8686 43.5284 29.2886 41.5844 29.2886ZM41.5844 24.8966C42.4964 24.8966 43.3484 24.6806 44.1404 24.2486C44.9564 23.7926 45.6044 23.1206 46.0844 22.2326C46.5644 21.3446 46.8044 20.2646 46.8044 18.9926C46.8044 17.0966 46.3004 15.6446 45.2924 14.6366C44.3084 13.6046 43.0964 13.0886 41.6564 13.0886C40.2164 13.0886 39.0044 13.6046 38.0204 14.6366C37.0604 15.6446 36.5804 17.0966 36.5804 18.9926C36.5804 20.8886 37.0484 22.3526 37.9844 23.3846C38.9444 24.3926 40.1444 24.8966 41.5844 24.8966ZM64.0014 24.3206L69.0414 9.0206H74.4054L67.0254 28.9646H60.9054L53.5614 9.0206H58.9614L64.0014 24.3206ZM79.7922 6.6446C78.9042 6.6446 78.1602 6.3686 77.5602 5.8166C76.9842 5.2406 76.6962 4.5326 76.6962 3.6926C76.6962 2.8526 76.9842 2.1566 77.5602 1.6046C78.1602 1.0286 78.9042 0.740598 79.7922 0.740598C80.6802 0.740598 81.4122 1.0286 81.9882 1.6046C82.5882 2.1566 82.8882 2.8526 82.8882 3.6926C82.8882 4.5326 82.5882 5.2406 81.9882 5.8166C81.4122 6.3686 80.6802 6.6446 79.7922 6.6446ZM82.2762 9.0206V28.9646H77.2362V9.0206H82.2762ZM105.796 18.5606C105.796 19.2806 105.748 19.9286 105.652 20.5046H91.0717C91.1917 21.9446 91.6957 23.0726 92.5837 23.8886C93.4717 24.7046 94.5637 25.1126 95.8597 25.1126C97.7317 25.1126 99.0637 24.3086 99.8557 22.7006H105.292C104.716 24.6206 103.612 26.2046 101.98 27.4526C100.348 28.6766 98.3437 29.2886 95.9677 29.2886C94.0477 29.2886 92.3197 28.8686 90.7837 28.0286C89.2717 27.1646 88.0837 25.9526 87.2197 24.3926C86.3797 22.8326 85.9597 21.0326 85.9597 18.9926C85.9597 16.9286 86.3797 15.1166 87.2197 13.5566C88.0597 11.9966 89.2357 10.7966 90.7477 9.9566C92.2597 9.1166 93.9997 8.6966 95.9677 8.6966C97.8637 8.6966 99.5557 9.1046 101.044 9.9206C102.556 10.7366 103.72 11.9006 104.536 13.4126C105.376 14.9006 105.796 16.6166 105.796 18.5606ZM100.576 17.1206C100.552 15.8246 100.084 14.7926 99.1717 14.0246C98.2597 13.2326 97.1437 12.8366 95.8237 12.8366C94.5757 12.8366 93.5197 13.2206 92.6557 13.9886C91.8157 14.7326 91.2997 15.7766 91.1077 17.1206H100.576Z" fill="#0CC1CE"/>
<path d="M128.842 28.9646H126.322L112.39 7.7966V28.9646H109.87V3.8006H112.39L126.322 24.9326V3.8006H128.842V28.9646ZM152.334 18.1286C152.334 18.9926 152.31 19.6526 152.262 20.1086H135.954C136.026 21.5966 136.386 22.8686 137.034 23.9246C137.682 24.9806 138.534 25.7846 139.59 26.3366C140.646 26.8646 141.798 27.1286 143.046 27.1286C144.678 27.1286 146.046 26.7326 147.15 25.9406C148.278 25.1486 149.022 24.0806 149.382 22.7366H152.046C151.566 24.6566 150.534 26.2286 148.95 27.4526C147.39 28.6526 145.422 29.2526 143.046 29.2526C141.198 29.2526 139.542 28.8446 138.078 28.0286C136.614 27.1886 135.462 26.0126 134.622 24.5006C133.806 22.9646 133.398 21.1766 133.398 19.1366C133.398 17.0966 133.806 15.3086 134.622 13.7726C135.438 12.2366 136.578 11.0606 138.042 10.2446C139.506 9.4286 141.174 9.0206 143.046 9.0206C144.918 9.0206 146.55 9.4286 147.942 10.2446C149.358 11.0606 150.438 12.1646 151.182 13.5566C151.95 14.9246 152.334 16.4486 152.334 18.1286ZM149.778 18.0566C149.802 16.5926 149.502 15.3446 148.878 14.3126C148.278 13.2806 147.45 12.5006 146.394 11.9726C145.338 11.4446 144.186 11.1806 142.938 11.1806C141.066 11.1806 139.47 11.7806 138.15 12.9806C136.83 14.1806 136.098 15.8726 135.954 18.0566H149.778ZM163.713 29.2526C161.457 29.2526 159.609 28.7366 158.169 27.7046C156.753 26.6486 155.961 25.2206 155.793 23.4206H158.385C158.505 24.5246 159.021 25.4246 159.933 26.1206C160.869 26.7926 162.117 27.1286 163.677 27.1286C165.045 27.1286 166.113 26.8046 166.881 26.1566C167.673 25.5086 168.069 24.7046 168.069 23.7446C168.069 23.0726 167.853 22.5206 167.421 22.0886C166.989 21.6566 166.437 21.3206 165.765 21.0806C165.117 20.8166 164.229 20.5406 163.101 20.2526C161.637 19.8686 160.449 19.4846 159.537 19.1006C158.625 18.7166 157.845 18.1526 157.197 17.4086C156.573 16.6406 156.261 15.6206 156.261 14.3486C156.261 13.3886 156.549 12.5006 157.125 11.6846C157.701 10.8686 158.517 10.2206 159.573 9.7406C160.629 9.2606 161.829 9.0206 163.173 9.0206C165.285 9.0206 166.989 9.5606 168.285 10.6406C169.581 11.6966 170.277 13.1606 170.373 15.0326H167.853C167.781 13.8806 167.325 12.9566 166.485 12.2606C165.669 11.5406 164.541 11.1806 163.101 11.1806C161.829 11.1806 160.797 11.4806 160.005 12.0806C159.213 12.6806 158.817 13.4246 158.817 14.3126C158.817 15.0806 159.045 15.7166 159.501 16.2206C159.981 16.7006 160.569 17.0846 161.265 17.3726C161.961 17.6366 162.897 17.9366 164.073 18.2726C165.489 18.6566 166.617 19.0286 167.457 19.3886C168.297 19.7486 169.017 20.2766 169.617 20.9726C170.217 21.6686 170.529 22.5926 170.553 23.7446C170.553 24.8006 170.265 25.7486 169.689 26.5886C169.113 27.4046 168.309 28.0526 167.277 28.5326C166.245 29.0126 165.057 29.2526 163.713 29.2526ZM178.572 11.4326V23.6366C178.572 24.8366 178.8 25.6646 179.256 26.1206C179.712 26.5766 180.516 26.8046 181.668 26.8046H183.972V28.9646H181.272C179.496 28.9646 178.176 28.5566 177.312 27.7406C176.448 26.9006 176.016 25.5326 176.016 23.6366V11.4326H173.28V9.3086H176.016V4.3766H178.572V9.3086H183.972V11.4326H178.572Z" fill="white"/>
</svg>
