<svg width="24" height="25" viewBox="0 0 24 25" fill="none" xmlns="http://www.w3.org/2000/svg">
<path d="M17.6401 21.78H6.6001C5.5001 21.78 4.6001 20.88 4.6001 19.78V13.63C4.6001 12.53 5.5001 11.63 6.6001 11.63H17.6401C18.7401 11.63 19.6401 12.53 19.6401 13.63V19.78C19.6401 20.88 18.7401 21.78 17.6401 21.78Z" stroke="#727272" stroke-width="1.2" stroke-miterlimit="10" stroke-linecap="round" stroke-linejoin="round"/>
<path d="M16.5901 11.63V8.81998C16.5901 6.34998 14.5901 4.34998 12.1201 4.34998C9.65015 4.34998 7.65015 6.34998 7.65015 8.81998V11.63" stroke="#727272" stroke-width="1.2" stroke-miterlimit="10" stroke-linecap="round" stroke-linejoin="round"/>
<path d="M12.1199 16.7C12.7937 16.7 13.3399 16.1538 13.3399 15.48C13.3399 14.8062 12.7937 14.26 12.1199 14.26C11.4461 14.26 10.8999 14.8062 10.8999 15.48C10.8999 16.1538 11.4461 16.7 12.1199 16.7Z" fill="#727272"/>
<path d="M12.1201 16.27V18.25" stroke="#727272" stroke-width="1.2" stroke-miterlimit="10" stroke-linecap="round" stroke-linejoin="round"/>
</svg>
