<svg xmlns="http://www.w3.org/2000/svg" width="24" height="25" viewBox="0 0 24 25" fill="none">
  <g clip-path="url(#clip0_28_198)">
    <path d="M3 10.1907C3 11.1099 3.18106 12.0202 3.53284 12.8695C3.88463 13.7187 4.40024 14.4904 5.05025 15.1404C5.70026 15.7904 6.47194 16.306 7.32122 16.6578C8.1705 17.0096 9.08075 17.1907 10 17.1907C10.9193 17.1907 11.8295 17.0096 12.6788 16.6578C13.5281 16.306 14.2997 15.7904 14.9497 15.1404C15.5998 14.4904 16.1154 13.7187 16.4672 12.8695C16.8189 12.0202 17 11.1099 17 10.1907C17 9.27142 16.8189 8.36117 16.4672 7.51189C16.1154 6.66261 15.5998 5.89094 14.9497 5.24093C14.2997 4.59092 13.5281 4.0753 12.6788 3.72352C11.8295 3.37173 10.9193 3.19067 10 3.19067C9.08075 3.19067 8.1705 3.37173 7.32122 3.72352C6.47194 4.0753 5.70026 4.59092 5.05025 5.24093C4.40024 5.89094 3.88463 6.66261 3.53284 7.51189C3.18106 8.36117 3 9.27142 3 10.1907Z" stroke="#727272" stroke-width="1.5" stroke-linecap="round" stroke-linejoin="round"/>
    <path d="M21 21.1907L15 15.1907" stroke="#727272" stroke-width="1.5" stroke-linecap="round" stroke-linejoin="round"/>
  </g>
  <defs>
    <clipPath id="clip0_28_198">
      <rect width="24" height="24" fill="white" transform="translate(0 0.190674)"/>
    </clipPath>
  </defs>
</svg>