<svg width="133" height="21" viewBox="0 0 133 21" fill="none" xmlns="http://www.w3.org/2000/svg">
<g id="Group 34426">
<g id="Group 34423">
<path id="Vector" d="M11.1153 16.7961L4.76485 20.1349L5.97794 13.0632L0.833374 8.05548L7.93287 7.02657L11.1081 0.592773L14.2833 7.02657L21.3828 8.05548L16.2383 13.0632L17.4513 20.1349L11.1153 16.7961Z" fill="#0CC1CE" stroke="#0CC1CE" stroke-width="0.5" stroke-linecap="round" stroke-linejoin="round"/>
<path id="Vector_2" d="M38.8979 17.3117L32.5474 20.6505L33.7605 13.5788L28.616 8.5711L35.7155 7.54219L38.8907 1.1084L42.0659 7.54219L49.1654 8.5711L44.0209 13.5788L45.2339 20.6505L38.8979 17.3117Z" fill="#0CC1CE" stroke="#0CC1CE" stroke-width="0.5" stroke-linecap="round" stroke-linejoin="round"/>
<path id="Vector_3" d="M66.6801 17.3117L60.3297 20.6505L61.5428 13.5788L56.3982 8.5711L63.4977 7.54219L66.6729 1.1084L69.8481 7.54219L76.9476 8.5711L71.8031 13.5788L73.0162 20.6505L66.6801 17.3117Z" fill="#0CC1CE" stroke="#0CC1CE" stroke-width="0.5" stroke-linecap="round" stroke-linejoin="round"/>
<path id="Vector_4" d="M94.4628 17.3117L88.1124 20.6505L89.3255 13.5788L84.1809 8.5711L91.2804 7.54219L94.4556 1.1084L97.6309 7.54219L104.73 8.5711L99.5858 13.5788L100.799 20.6505L94.4628 17.3117Z" fill="#0CC1CE" stroke="#0CC1CE" stroke-width="0.5" stroke-linecap="round" stroke-linejoin="round"/>
<path id="Vector_5" d="M122.245 17.3117L115.895 20.6505L117.108 13.5788L111.963 8.5711L119.063 7.54219L122.238 1.1084L125.413 7.54219L132.513 8.5711L127.368 13.5788L128.581 20.6505L122.245 17.3117Z" stroke="#0CC1CE" stroke-width="0.5" stroke-linecap="round" stroke-linejoin="round"/>
</g>
</g>
</svg>
